<svg width="128" height="128" viewBox="0 0 128 128" fill="none" xmlns="http://www.w3.org/2000/svg">
<path d="M19.152 96C17.296 96 15.856 95.488 14.832 94.464C13.808 93.44 13.296 92.032 13.296 90.24V33.984C13.296 32.128 13.84 30.656 14.928 29.568C16.08 28.416 17.584 27.84 19.44 27.84C21.36 27.84 22.864 28.416 23.952 29.568C25.104 30.656 25.68 32.128 25.68 33.984V85.824H52.656C56.496 85.824 58.416 87.52 58.416 90.912C58.416 94.304 56.496 96 52.656 96H19.152ZM93.1298 96.864C86.6018 96.864 80.8738 95.456 75.9458 92.64C71.0818 89.824 67.3378 85.792 64.7138 80.544C62.0898 75.296 60.7778 69.152 60.7778 62.112C60.7778 55.072 62.0898 48.96 64.7138 43.776C67.3378 38.528 71.0818 34.496 75.9458 31.68C80.8738 28.864 86.6018 27.456 93.1298 27.456C97.3538 27.456 101.322 28.096 105.034 29.376C108.746 30.592 112.042 32.384 114.922 34.752C115.754 35.392 116.33 36.064 116.65 36.768C116.97 37.472 117.13 38.336 117.13 39.36C117.13 40.768 116.746 41.952 115.978 42.912C115.21 43.872 114.282 44.352 113.194 44.352C111.914 44.352 110.602 43.904 109.258 43.008C106.506 40.96 103.946 39.552 101.578 38.784C99.2098 37.952 96.5858 37.536 93.7058 37.536C87.0498 37.536 81.9938 39.616 78.5378 43.776C75.1458 47.936 73.4498 54.048 73.4498 62.112C73.4498 70.24 75.1458 76.384 78.5378 80.544C81.9938 84.704 87.0498 86.784 93.7058 86.784C96.4578 86.784 98.9858 86.368 101.29 85.536C103.658 84.704 106.314 83.296 109.258 81.312C109.898 80.928 110.538 80.608 111.178 80.352C111.818 80.096 112.49 79.968 113.194 79.968C114.282 79.968 115.21 80.448 115.978 81.408C116.746 82.368 117.13 83.552 117.13 84.96C117.13 85.92 116.97 86.784 116.65 87.552C116.33 88.256 115.754 88.928 114.922 89.568C112.042 91.936 108.746 93.76 105.034 95.04C101.322 96.256 97.3538 96.864 93.1298 96.864Z" fill="white"/>
</svg>
